<svg xmlns="http://www.w3.org/2000/svg" width="376.62" height="376.62" viewBox="0 0 99.647 99.647"><g transform="translate(-26.348 -35.232)" fill="none" stroke="#000" stroke-width="3.965" stroke-linecap="round" stroke-linejoin="bevel"><path d="M85.364 56.123c8.286-.245 16.571-.49 21.504.858 4.933 1.347 6.515 4.287 8.096 7.227m-72.511-7.216c7.062 14.878 14.124 29.756 20.4 29.625 6.278-.131 11.77-15.271 17.263-30.41"/><path d="M60.458 87.565c.063 11.176.127 22.353.162 28.283s.043 6.611-5.144 1.179c-5.186-5.432-15.575-16.989-25.958-28.539" transform="matrix(.9904 0 0 1.16613 3.268 -14.396)"/><path d="M88.199 56.123l.111 54.445c.023 11.103.023 11.637 5.736 5.975 5.713-5.662 17.138-17.52 28.564-29.38" transform="matrix(.99408 0 0 1.1116 -2.21 -6.16)"/><path d="M85.498 76.636l14.432-.067"/><circle cx="76.172" cy="85.055" r="47.841" opacity=".976"/></g></svg>